<?xml version="1.0" encoding="utf-8"?>
<!-- Generator: Adobe Illustrator 21.0.1, SVG Export Plug-In . SVG Version: 6.00 Build 0)  -->
<svg version="1.1" id="Layer_1" xmlns="http://www.w3.org/2000/svg" xmlns:xlink="http://www.w3.org/1999/xlink" x="0px" y="0px"
	 viewBox="0 0 1000 1000" style="enable-background:new 0 0 1000 1000;" xml:space="preserve">
<style type="text/css">
	.st0{fill:#FFFFFF;}
	.st1{fill:#D12429;}
	.st2{font-family:'Roboto-BoldCondensed';}
	.st3{font-size:137.429px;}
</style>
<title>dogicon</title>
<path class="st0" d="M160.6,38.5c6.2,1.6,11.7,2.8,17.1,4.4c35.4,10.7,68,27.4,99.1,46.8c30.2,18.8,59.5,39.2,89.1,59
	c2.4,1.6,4,1.9,6.6,0.4c36.4-21.1,76-30.7,117.8-32.2c37.2-1.4,73.5,3,108.3,16.7c10.2,4,20,9.2,29.7,14.2c2.9,1.5,4.7,1.8,7.5-0.3
	c41.2-29.9,83.5-57.9,129-81c22-11.2,44.6-21,68.8-26.6c1.6-0.4,3.2-0.6,5.8-1.1c0,5,0,9.6,0,14.2c-0.7,58-6,115.4-19.3,171.9
	c-10,42.3-24,83.2-46.2,120.9c-4.4,7.5-9.1,14.7-14.3,21.6c-2.9,3.8-3.4,7.3-3.1,11.9c1.7,25.9,4.3,51.9,4,77.8
	c-0.9,81.2-14.6,160.4-39,237.8c-18.6,59.2-42.8,115.9-77.6,167.6c-18.2,27-39,51.6-65.2,71.1c-17.9,13.3-37.4,23.1-59.7,26.6
	c-27.4,4.2-53-1.9-77.1-14.8c-31.2-16.7-55.4-41.3-76.5-69.2c-36.8-48.8-62.2-103.5-82.3-160.9c-19.4-55.5-32.7-113-39.8-171.4
	c-6.9-56.1-8.1-112.3-0.5-168.4c0.3-2,0-4.5-1.1-6c-25.9-35.5-42.4-75.4-54.5-117.2c-11.5-39.7-18.9-80.5-22.1-121.7
	c-2.2-28.5-3-57.2-4.4-85.8C160.5,43,160.6,41.3,160.6,38.5z M580.4,881c0.6-0.2,1.2-0.3,1.5-0.6c1.6-1.7,3.2-3.4,4.8-5.1
	c24.6-27.8,43.6-59.3,59.8-92.5c29.6-60.5,49.5-124.3,62.3-190.3c13.5-69.6,18.8-139.6,10.5-210.2c-5.1-43.3-15.5-85.2-36.1-124
	c-22.6-42.4-55.1-74.1-100.7-91c-32.8-12.1-66.8-15-101.4-12.3c-67,5.2-120,34.3-156.1,91.7c-6.8,10.7-12.3,22.2-18.5,33.4l1.3,0.8
	c1.2-0.8,2.4-1.5,3.6-2.4c28.8-20.8,65-20.7,93.6,0.2c21.3,15.5,35.3,36.5,45,60.5c16.2,40.1,18.9,81.6,10.6,123.7
	c-6.4,32.6-19.5,62.3-43.8,85.9c-14.9,14.5-32.4,24-53.5,25.4c-25.5,1.7-46.5-8.3-64.3-25.7c-7-6.9-13-14.9-19.7-22.6
	c0.1,1.3,0,2.6,0.2,3.8c1.5,10.9,2.8,21.8,4.5,32.6c10.7,70.5,30,138.6,60,203.4c18.3,39.6,40.1,77.1,69.7,109.6
	c1.2,1.5,2.3,3.2,3.3,4.9c7.9-22.2,23.8-33.7,43.2-40.7c27.7-9.9,55.6-9.5,82.9,1.9C561.1,849.1,575.4,860.8,580.4,881z
	 M752.9,304.1c31.8-67.5,43.2-139,47.8-212.4c-21.8,7-117.8,64.6-130.6,78.5C713.7,204.7,736.3,252.5,752.9,304.1z M320.7,402.7
	c0.2,7.4,3.6,14.9,8.6,21.7c9.6,13.1,21.2,23.6,38,26c11.9,1.8,19.2-6,17.5-17.8c-3-20.6-26.4-43.5-47.2-46
	C327.6,385.4,320.8,391.4,320.7,402.7L320.7,402.7z M662.1,386.5c-3.8,0.3-7.6,1.2-11.1,2.7c-15.7,6.6-28.1,19.2-34.6,34.9
	c-1.4,3.4-2.1,7-2.3,10.6c-0.7,10.5,5,16.3,15.5,16.2c21.3-0.4,48.6-27.8,48.9-49C678.6,391.6,672.3,385.6,662.1,386.5z"/>
<rect x="36" y="354.6" class="st1" width="928" height="135"/>
<text transform="matrix(1 0 0 1 340.8291 468.049)" class="st0 st2 st3">BOOK</text>
</svg>
