<?xml version="1.0" encoding="utf-8"?>
<!-- Generator: Adobe Illustrator 21.0.2, SVG Export Plug-In . SVG Version: 6.00 Build 0)  -->
<svg version="1.1" id="Layer_1" xmlns="http://www.w3.org/2000/svg" xmlns:xlink="http://www.w3.org/1999/xlink" x="0px" y="0px"
	 viewBox="0 0 1000 1000" style="enable-background:new 0 0 1000 1000;" xml:space="preserve">
<style type="text/css">
	.st0{fill:#FFFFFF;}
	.st1{fill:#D12429;}
	.st2{enable-background:new    ;}
</style>
<g>
	<path class="st0" d="M662.1,386.5c-3.8,0.3-7.6,1.2-11.1,2.7c-15.7,6.6-28.1,19.2-34.6,34.9c-1.4,3.4-2.1,7-2.3,10.6
		c-0.7,10.5,5,16.3,15.5,16.2c21.3-0.4,48.6-27.8,48.9-49C678.6,391.6,672.3,385.6,662.1,386.5z"/>
	<path class="st0" d="M833.6,39.9c-24.2,5.6-46.8,15.4-68.8,26.6c-45.5,23.1-87.8,51.1-129,81c-2.8,2.1-4.6,1.8-7.5,0.3
		c-9.7-5-19.5-10.2-29.7-14.2c-34.8-13.7-71.1-18.1-108.3-16.7c-41.8,1.5-81.4,11.1-117.8,32.2c-2.6,1.5-4.2,1.2-6.6-0.4
		c-29.6-19.8-58.9-40.2-89.1-59c-31.1-19.4-63.7-36.1-99.1-46.8c-5.4-1.6-10.9-2.8-17.1-4.4c0,2.8-0.1,4.5,0.1,6.3
		c1.4,28.6,2.2,57.3,4.4,85.8c3.2,41.2,10.6,82,22.1,121.7c12.1,41.8,28.6,81.7,54.5,117.2c1.1,1.5,1.4,4,1.1,6
		c-7.6,56.1-6.4,112.3,0.5,168.4c7.1,58.4,20.4,115.9,39.8,171.4c20.1,57.4,45.5,112.1,82.3,160.9c21.1,27.9,45.3,52.5,76.5,69.2
		c24.1,12.9,49.7,19,77.1,14.8c22.3-3.5,41.8-13.3,59.7-26.6c26.2-19.5,47-44.1,65.2-71.1c34.8-51.7,59-108.4,77.6-167.6
		c24.4-77.4,38.1-156.6,39-237.8c0.3-25.9-2.3-51.9-4-77.8c-0.3-4.6,0.2-8.1,3.1-11.9c5.2-6.9,9.9-14.1,14.3-21.6
		c22.2-37.7,36.2-78.6,46.2-120.9C833.4,168.4,838.7,111,839.4,53c0-4.6,0-9.2,0-14.2C836.8,39.3,835.2,39.5,833.6,39.9z
		 M240.9,290.1c0,0-39.5-72.7-47.8-212.4c0,0,84.5,45.7,130.6,78.5C323.7,156.2,276,180.2,240.9,290.1z M708.8,592.5
		c-12.8,66-32.7,129.8-62.3,190.3c-16.2,33.2-35.2,64.7-59.8,92.5c-1.6,1.7-3.2,3.4-4.8,5.1c-0.3,0.3-0.9,0.4-1.5,0.6
		c-5-20.2-19.3-31.9-37.3-39.6c-27.3-11.4-55.2-11.8-82.9-1.9c-19.4,7-35.3,18.5-43.2,40.7c-1-1.7-2.1-3.4-3.3-4.9
		c-29.6-32.5-51.4-70-69.7-109.6c-30-64.8-49.3-132.9-60-203.4c-1.7-10.8-3-21.7-4.5-32.6c-0.2-1.2-0.1-2.5-0.2-3.8
		c6.7,7.7,12.7,15.7,19.7,22.6c17.8,17.4,38.8,27.4,64.3,25.7c21.1-1.4,38.6-10.9,53.5-25.4c24.3-23.6,37.4-53.3,43.8-85.9
		c8.3-42.1,5.6-83.6-10.6-123.7c-9.7-24-23.7-45-45-60.5c-28.6-20.9-64.8-21-93.6-0.2c-1.2,0.9-2.4,1.6-3.6,2.4l-1.3-0.8
		c6.2-11.2,11.7-22.7,18.5-33.4c36.1-57.4,89.1-86.5,156.1-91.7c34.6-2.7,68.6,0.2,101.4,12.3c45.6,16.9,78.1,48.6,100.7,91
		c20.6,38.8,31,80.7,36.1,124C727.6,452.9,722.3,522.9,708.8,592.5z M320.7,402.7c0.1-11.3,6.9-17.3,16.9-16.1
		c20.8,2.5,44.2,25.4,47.2,46c1.7,11.8-5.6,19.6-17.5,17.8c-16.8-2.4-28.4-12.9-38-26C324.3,417.6,320.9,410.1,320.7,402.7z
		 M752.9,304.1c-16.6-51.6-39.2-99.4-82.8-133.9c12.8-13.9,108.8-71.5,130.6-78.5C796.1,165.1,784.7,236.6,752.9,304.1z"/>
</g>
<title>dogicon</title>
<rect x="36" y="354.6" class="st1" width="928" height="135"/>
<g class="st2">
	<path class="st0" d="M346.6,468l19.5-97.7h30.1c8.9,0,15.7,2.2,20.5,6.7s6.3,11.1,4.6,19.7c-0.9,4.6-3,8.6-6.2,11.9
		s-7.1,5.8-11.7,7.4c5.2,1.3,9,4.1,11.2,8.7c2.2,4.5,2.7,9.8,1.5,15.7c-1.9,9.5-6,16.5-12.1,20.9c-6.2,4.4-14,6.6-23.5,6.6
		L346.6,468L346.6,468z M368.7,422.3l-7,35.4h20.9c5.1,0,9.5-1.5,13.3-4.5s6.2-7.2,7.3-12.5c1.2-6.1,0.8-10.6-1-13.7
		s-5.4-4.6-10.6-4.6L368.7,422.3L368.7,422.3z M370.8,411.9h19.8c4,0,7.8-1.4,11.2-4.1c3.5-2.8,5.7-6.5,6.6-11.2
		c1.1-5.6,0.5-9.6-2-12.1c-2.4-2.5-6.5-3.7-12.3-3.7H377L370.8,411.9z"/>
	<path class="st0" d="M506.4,428.6c-2.6,12.8-7.8,22.9-15.5,30.1s-17.1,10.8-28.2,10.8c-10,0-18-4.1-24-12.3
		c-6-8.2-7.8-18.2-5.4-29.8l3.5-17.4c2.5-12.8,7.5-22.8,15-30.1c7.4-7.2,16.5-10.9,27.3-10.9c10.4,0,18.7,4.1,24.9,12.4
		c6.2,8.3,8.2,18.2,5.9,29.8L506.4,428.6z M496.9,411c1.9-9.4,0.9-16.9-2.9-22.6s-9.5-8.6-17.1-8.6c-6.4,0-12.1,2.8-17.1,8.3
		c-4.9,5.5-8.3,12.8-10,21.6l-3.6,17.6c-1.9,9.5-1.1,17.1,2.4,22.8c3.5,5.7,8.9,8.6,16.2,8.6c6.9,0,12.9-2.8,18.1-8.3
		s8.7-12.8,10.5-21.8L496.9,411z"/>
	<path class="st0" d="M594.3,428.6c-2.6,12.8-7.8,22.9-15.5,30.1s-17.1,10.8-28.2,10.8c-10,0-18-4.1-24-12.3
		c-6-8.2-7.8-18.2-5.4-29.8l3.5-17.4c2.5-12.8,7.5-22.8,15-30.1c7.4-7.2,16.5-10.9,27.3-10.9c10.4,0,18.7,4.1,24.9,12.4
		s8.2,18.2,5.9,29.8L594.3,428.6z M584.9,411c1.9-9.4,0.9-16.9-2.9-22.6c-3.8-5.7-9.5-8.6-17.1-8.6c-6.4,0-12.1,2.8-17.1,8.3
		c-4.9,5.5-8.3,12.8-10,21.6l-3.6,17.6c-1.9,9.5-1.1,17.1,2.4,22.8c3.5,5.7,8.9,8.6,16.2,8.6c6.9,0,12.9-2.8,18.1-8.3
		c5.2-5.5,8.7-12.8,10.5-21.8L584.9,411z"/>
	<path class="st0" d="M633.9,423.9h-8.6l-8.8,44.2h-13l19.5-97.7h13l-8.5,42.5h9.5l35.9-42.5h15.9l0.1,0.3L645,419.4l26,48.6h-14.8
		L633.9,423.9z"/>
</g>
<polygon class="st0" points="175,65 234,311 346.6,159 181,53 "/>
</svg>
