<svg id="Layer_1" data-name="Layer 1" xmlns="http://www.w3.org/2000/svg" viewBox="0 0 1000 1000"><defs><style>.cls-1{fill:#fff;}</style></defs><title>dogicon</title><path class="cls-1" d="M170.51,39.22c6.24,1.6,11.72,2.8,17.07,4.42,35.37,10.65,68,27.41,99.13,46.8,30.24,18.84,59.53,39.2,89.15,59,2.4,1.61,4,1.93,6.64.43,36.43-21.08,76-30.68,117.81-32.24,37.19-1.39,73.54,3,108.34,16.69,10.19,4,20,9.19,29.71,14.22,2.89,1.49,4.65,1.75,7.45-.28,41.17-29.88,83.54-57.88,129-81,22-11.18,44.59-21,68.78-26.63,1.6-.37,3.23-.63,5.76-1.12,0,5,0,9.58,0,14.16-.69,58-6,115.41-19.26,171.93-10,42.35-24,83.18-46.19,120.87a225.26,225.26,0,0,1-14.34,21.65c-2.87,3.8-3.4,7.33-3.11,11.89,1.65,25.91,4.31,51.86,4,77.78-.87,81.15-14.64,160.37-39,237.75-18.62,59.22-42.79,115.91-77.61,167.63-18.15,27-39,51.57-65.25,71.11-17.88,13.3-37.4,23.14-59.65,26.57-27.4,4.22-53-1.88-77.1-14.79-31.21-16.71-55.42-41.31-76.49-69.22-36.82-48.78-62.24-103.45-82.33-160.81a819.7,819.7,0,0,1-39.8-171.43c-6.9-56.09-8.06-112.26-.52-168.44.26-2,0-4.54-1.1-6-25.92-35.48-42.35-75.37-54.52-117.2A604.08,604.08,0,0,1,175,131.29c-2.24-28.53-3-57.18-4.45-85.78C170.43,43.74,170.51,42,170.51,39.22ZM590.35,881.66c.61-.24,1.18-.3,1.48-.61,1.63-1.67,3.23-3.37,4.77-5.11,24.6-27.8,43.6-59.26,59.81-92.45C686,723,705.92,659.23,718.69,593.21c13.46-69.56,18.77-139.57,10.5-210.21-5.08-43.32-15.51-85.17-36.13-124-22.57-42.45-55.08-74.08-100.73-91-32.78-12.12-66.77-15-101.37-12.34C424,160.86,371,190,334.82,247.36c-6.78,10.74-12.33,22.25-18.45,33.41l1.26.84c1.19-.79,2.4-1.55,3.56-2.39,28.76-20.79,65-20.66,93.64.18,21.32,15.51,35.34,36.49,45,60.53C476,380,478.73,421.51,470.43,463.63c-6.44,32.63-19.5,62.28-43.81,85.91-14.89,14.47-32.37,24-53.46,25.38-25.47,1.72-46.51-8.32-64.27-25.71-7.05-6.91-13-14.89-19.69-22.57.06,1.3,0,2.56.18,3.79,1.47,10.88,2.84,21.78,4.49,32.64,10.7,70.54,30,138.57,60,203.41,18.32,39.64,40.11,77.13,69.74,109.6a37.25,37.25,0,0,1,3.26,4.91c7.91-22.17,23.77-33.72,43.25-40.7,27.72-9.93,55.63-9.54,82.91,1.9C571,849.75,585.27,861.46,590.35,881.66ZM762.84,304.81c31.85-67.46,43.19-139,47.83-212.41-21.81,7-117.84,64.58-130.59,78.47C723.63,205.45,746.16,253.2,762.84,304.81Zm-432.2,98.59c.24,7.39,3.63,14.9,8.61,21.73,9.57,13.12,21.17,23.57,38,26.05,11.92,1.76,19.25-6,17.52-17.8-3-20.63-26.44-43.49-47.19-46C337.5,386.09,330.67,392.07,330.64,403.39ZM672,387.22a36.7,36.7,0,0,0-11.09,2.68,64.55,64.55,0,0,0-34.57,34.9A33.4,33.4,0,0,0,624,435.43c-.74,10.48,5,16.34,15.48,16.16,21.28-.37,48.58-27.75,48.86-49C688.46,392.32,682.22,386.26,672,387.22Z"/></svg>