<?xml version="1.0" encoding="utf-8"?>
<!-- Generator: Adobe Illustrator 21.0.2, SVG Export Plug-In . SVG Version: 6.00 Build 0)  -->
<svg version="1.1" id="Layer_1" xmlns="http://www.w3.org/2000/svg" xmlns:xlink="http://www.w3.org/1999/xlink" x="0px" y="0px"
	 viewBox="0 0 1000 1000" style="enable-background:new 0 0 1000 1000;" xml:space="preserve">
<style type="text/css">
	.st0{fill:#FFFFFF;}
</style>
<path class="st0" d="M170.5,39.2c6.2,1.6,11.7,2.8,17.1,4.4c35.4,10.6,68,27.4,99.1,46.8c30.2,18.8,59.5,39.2,89.2,59
	c2.4,1.6,4,1.9,6.6,0.4c36.4-21.1,76-30.7,117.8-32.2c37.2-1.4,73.5,3,108.3,16.7c10.2,4,20,9.2,29.7,14.2c2.9,1.5,4.6,1.8,7.5-0.3
	c41.2-29.9,83.5-57.9,129-81c22-11.2,44.6-21,68.8-26.6c1.6-0.4,3.2-0.6,5.8-1.1c0,5,0,9.6,0,14.2c-0.7,58-6,115.4-19.3,171.9
	c-10,42.3-24,83.2-46.2,120.9c-4.4,7.5-9.1,14.8-14.3,21.6c-2.9,3.8-3.4,7.3-3.1,11.9c1.6,25.9,4.3,51.9,4,77.8
	c-0.9,81.2-14.6,160.4-39,237.8c-18.6,59.2-42.8,115.9-77.6,167.6c-18.2,27-39,51.6-65.2,71.1c-17.9,13.3-37.4,23.1-59.6,26.6
	c-27.4,4.2-53-1.9-77.1-14.8c-31.2-16.7-55.4-41.3-76.5-69.2c-36.8-48.8-62.2-103.5-82.3-160.8c-19.5-55.7-32.6-112.9-39.8-171.4
	c-6.9-56.1-8.1-112.3-0.5-168.4c0.3-2,0-4.5-1.1-6c-25.9-35.5-42.3-75.4-54.5-117.2c-11.6-39.8-18.9-80.4-22.2-121.7
	c-2.2-28.5-3-57.2-4.5-85.8C170.4,43.7,170.5,42,170.5,39.2z M590.3,881.7c0.6-0.2,1.2-0.3,1.5-0.6c1.6-1.7,3.2-3.4,4.8-5.1
	c24.6-27.8,43.6-59.3,59.8-92.5c29.6-60.5,49.5-124.3,62.3-190.3c13.5-69.6,18.8-139.6,10.5-210.2c-5.1-43.3-15.5-85.2-36.1-124
	c-22.6-42.4-55.1-74.1-100.7-91c-32.8-12.1-66.8-15-101.4-12.3C424,160.9,371,190,334.8,247.4c-6.8,10.7-12.3,22.3-18.4,33.4
	c0.4,0.3,0.8,0.6,1.3,0.8c1.2-0.8,2.4-1.6,3.6-2.4c28.8-20.8,65-20.7,93.6,0.2c21.3,15.5,35.3,36.5,45,60.5
	c16.2,40.1,18.9,81.6,10.6,123.7c-6.4,32.6-19.5,62.3-43.8,85.9c-14.9,14.5-32.4,24-53.5,25.4c-25.5,1.7-46.5-8.3-64.3-25.7
	c-7.1-6.9-13-14.9-19.7-22.6c0.1,1.3,0,2.6,0.2,3.8c1.5,10.9,2.8,21.8,4.5,32.6c10.7,70.5,30,138.6,60,203.4
	c18.3,39.6,40.1,77.1,69.7,109.6c1.3,1.4,2.2,3.3,3.3,4.9c7.9-22.2,23.8-33.7,43.2-40.7c27.7-9.9,55.6-9.5,82.9,1.9
	C571,849.8,585.3,861.5,590.3,881.7z M762.8,304.8c31.8-67.5,43.2-139,47.8-212.4c-21.8,7-117.8,64.6-130.6,78.5
	C723.6,205.5,746.2,253.2,762.8,304.8z M330.6,403.4c0.2,7.4,3.6,14.9,8.6,21.7c9.6,13.1,21.2,23.6,38,26.1
	c11.9,1.8,19.2-6,17.5-17.8c-3-20.6-26.4-43.5-47.2-46C337.5,386.1,330.7,392.1,330.6,403.4z"/>
<path d="M762.8,304.8c-16.7-51.6-39.2-99.4-82.8-133.9c12.7-13.9,108.8-71.5,130.6-78.5C806,165.8,794.7,237.3,762.8,304.8z"/>
<path d="M330.6,403.4c0-11.3,6.9-17.3,16.9-16.1c20.8,2.6,44.2,25.4,47.2,46c1.7,11.8-5.6,19.6-17.5,17.8
	c-16.8-2.5-28.4-12.9-38-26.1C334.3,418.3,330.9,410.8,330.6,403.4z"/>
<path class="st0" d="M688.3,402.6c-0.3,21.2-27.6,48.6-48.9,49c-10.4,0.2-16.2-5.7-15.5-16.2c0.3-3.6,1-7.3,2.4-10.6
	c6.9-16.1,18.5-27.9,34.6-34.9c3.4-1.5,7.3-2.3,11.1-2.7C682.2,386.3,688.5,392.3,688.3,402.6z"/>
</svg>
